/* XPM */
static char * browser_xpm[] = {
/* width height ncolors cpp [x_hot y_hot] */
"32 32 12 1 0 0",
/* colors */
" 	s iconGray4	m white	c #949494949494",
".	s iconGray2	m white	c #bdbdbdbdbdbd",
"X	s iconColor1	m black	c black",
"o	c #FFFF63634747",
"O	c #B2B222222222",
"+	s iconColor2	m white	c white",
"@	c #BEBEBEBEBEBE",
"#	s iconColor6	m white	c yellow",
"$	c #A0A02020F0F0",
"%	c #EEEE8282EEEE",
"&	c #1E1E9090FFFF",
"*	c #3232CDCD3232",
/* pixels */
"                   ...........X ",
"                   .oOoOoOoOoOX ",
"                   .OoOoOoOoOoX ",
"                   .oOoOoOoOoOX ",
"                   .OoOoOoOoOoX ",
"                   .oOoOXXXXXXX ",
"             .......OoOoX       ",
"             .oOoOoOoOoOX       ",
"             .OoOoOoOoOoX       ",
"             .oOoOoOoOoOX       ",
"             .OoOoOoOoOoX       ",
"             .XXXXXXXXXXX       ",
"                                ",
"          +++  +++   +          ",
" .....   +     +  +  +   .....X ",
" .@#@#X +      +  +  +   .$%$%X ",
" .#@#@X +      +  +  +   .%$%$X ",
" .@#@#X  +     +  +  +   .$%$%X ",
" .#@#@X   +++  +++   +++ .%$%$X ",
" .@#@#X                  .$%$%X ",
" .#@#@X.....X...........X.%$%$X ",
" .@#@#@#@#@#X.&*&*&*&*&*X.$%$%X ",
" .#@#@#@#@#@X.*&*&*&*&*&X.%$%$X ",
" .@#@#@#@#@#X.&*&*&*&*&*X.$%$%X ",
" .#@#@#@#@#@X.*&*&*&*&*&X.%$%$X ",
" .@#@#XXXXXXX.&*&*XXXXXXX.$%$%X ",
" .#@#@X.......*&*&X.......%$%$X ",
" .@#@#X.&*&*&*&*&*X.$%$%$%$%$%X ",
" .#@#@X.*&*&*&*&*&X.%$%$%$%$%$X ",
" .@#@#X.&*&*&*&*&*X.$%$%$%$%$%X ",
" .#@#@X.*&*&*&*&*&X.%$%$%$%$%$X ",
" .XXXXX.XXXXXXXXXXX.XXXXXXXXXXX "};
