#define search_width 16
#define search_height 16
static char search_bits[] = {
   0x00, 0x00, 0xfc, 0x7f, 0x02, 0x00, 0xfc, 0x1f, 0x00, 0x20, 0xf0, 0x1f,
   0x08, 0x00, 0xf0, 0x07, 0x00, 0x08, 0x80, 0x07, 0x80, 0x00, 0xf0, 0x07,
   0xe0, 0x03, 0xc0, 0x01, 0x80, 0x00, 0x00, 0x00};
