#define txt_modify_width 16
#define txt_modify_height 16
static char txt_modify_bits[] = {
   0x06, 0x00, 0x09, 0x00, 0x09, 0x00, 0x0f, 0x00, 0x09, 0x00, 0xc9, 0x01,
   0x40, 0x02, 0x40, 0x02, 0xc0, 0x01, 0x40, 0x02, 0x40, 0xe2, 0xc0, 0x91,
   0x00, 0x10, 0x00, 0x10, 0x00, 0x90, 0x00, 0xe0};
