/* XPM */
static char * caution_xpm[] = {
/* width height ncolors cpp [x_hot y_hot] */
"40 44 7 1 0 0",
/* colors */
" 	s none	m none	c none",
".	s iconColor1	m black	c black",
"X	c #DCDCDCDCDCDC",
"o	s iconColor3	m black	c red",
"O	c #707080809090",
"+	s iconColor2	m white	c white",
"@	c #2E2E8B8B5757",
/* pixels */
"                                        ",
"                                        ",
"                                        ",
"                      .....             ",
"                    ..X.X..             ",
"                  ..XXXXX...            ",
"                ..XXXXXXXX..            ",
"               .XXXXXXXXXX..            ",
"              ..XXXXXXXXX...            ",
"             .XXXXXXXXXX.....           ",
"            ..XXXXXXXXXXXXX..           ",
"            ..XXXXXXXXXX.....           ",
"            .XXXXXXXXX.......           ",
"           ..XXXXXXXX...o..X.           ",
"           ....XXXXX..oo..XX.           ",
"           ...XX...X......XX..          ",
"           ..X.....X.XX.XXX.X..         ",
"           .X...o..X.X...X.XX..         ",
"          ....oo.X...XX....XX..         ",
"          ......XX...XX....X..          ",
"          .......X.XXXX....O.           ",
"          .XX.X.XXXXXX...X..            ",
"          .XXX..XXXX.....X..   .        ",
"          .XXX..XX...+...X.  ....       ",
"         ..........+.+...X.....X...     ",
"        ..XX.....+.+.....X...XXXX..     ",
"       ..XXX.....+...+..X.XXXXXXX..     ",
"      ..XXXX.X.....++..X.OOXOXXXX..     ",
"      ..XOXX.X...++XOXXXOXXOXOXO..@.    ",
"      ..XOOX.X....XOXXX......XO....     ",
"       ..X...X..X.XXXX...........       ",
"      .......XXXXXX...@@@@@@@..O        ",
"    ..@@@.@@@..X.X..@@@@@@@..OOOOO      ",
"   .@@@@@@@@@.X...@@@@@@@..OOOOO        ",
"   ..@@@@@...XOX.@@@@@@..OOOOO          ",
"     ..@@@...XX.@@@@@..OOOOO            ",
"    OOO...XXXX..@@@..OOOOO              ",
"   OOOOO..XXXX..@..OOOOO                ",
"    OOO..XOXXX...OOOOO                  ",
"      O..XOXX..OOOOO                    ",
"       ..XXOX.OOOO                      ",
"        .....OOO                        ",
"         ....O                          ",
"                                        "};
