/* XPM */
static char * ccl_open_xpm[] = {
"24 26 21 1",
" 	c #FFFFFFFF0000",
".	c #999980805555",
"X	c #66668080AAAA",
"o	c #CCCCBFBFAAAA",
"O	c #000000000000",
"+	c #FFFFFFFFFFFF",
"@	c #333340405555",
"#	c #333360605555",
"$	c #FFFFDFDFFFFF",
"%	c #FFFFFFFFAAAA",
"&	c #CCCC20200000",
"*	c #CCCC40400000",
"=	c #999920205555",
"-	c #CCCC80805555",
";	c #CCCC9F9F5555",
":	c #CCCC80800000",
"?	c #333360600000",
">	c #333380805555",
",	c #000040405555",
"<	c #33339F9F5555",
"1	c #00008080AAAA",
"                        ",
"                        ",
"                        ",
"        .XoO.O          ",
"       oO++O XO         ",
"    .OOXoo+O   oO       ",
"  XO++O O+O    OO       ",
"  OooXO .O              ",
"  OXOo        @         ",
"     o.O    #$%+&       ",
"       XO  #+%+O+*=     ",
"       Oo &$%O%$%%O$&   ",
"       #+O-O=%+%+%O%OO  ",
"     @#+%$O-O=%+%$%OO   ",
"   #+O+%+O+%O;OOOOO     ",
"  O=%%%$%O%O%%:O?>>O    ",
"  OO=%+%+%O%+&O#,#><O   ",
"    OOO=%$OOO@#@>><>O   ",
"    O#@OOO@#@#><>OO     ",
"  OO?@#@O@#@?>>>OX.X    ",
"  O<1<>#,#><1<OXXX      ",
"  .XO><>>><OOX.X        ",
"  XXXOO<><OXXX          ",
"    .X.XOX.X            ",
"      XXXX              ",
"       X                "};
