/* XPM */
static char * client_xpm[] = {
/* width height ncolors cpp [x_hot y_hot] */
"24 26 11 1 0 0",
/* colors */
" 	s none	m none	c none",
".	s iconColor1	m black	c black",
"X	c #FFFF9F9F0000",
"o	c #FFFFBFBF0000",
"O	s iconColor3	m black	c red",
"+	s iconColor2	m white	c white",
"@	c #33339F9F5555",
"#	c #333380805555",
"$	c #00008080AAAA",
"%	c #66668080AAAA",
"&	c #999980805555",
/* pixels */
"                        ",
"                     .  ",
"                   .X.  ",
"                 .XXX.  ",
"                 ..oX.  ",
"               . XX...  ",
"              OOO...O.  ",
"             .OOOOOOO.  ",
"        .   .OO..OOOO.  ",
"     ...XX.OOOXXX.O.X.  ",
"    ..+XXoX...XX......  ",
"  .OOOO.X.XXXXX.O...O.  ",
"  .OOOOOO.O..oOOOOOOO.  ",
"  .O...OOOO++.O..OOOO.  ",
"  ...oX+.O..OO.XX.O.    ",
"  .XX..XXXXXX.XX@##.    ",
"  .oXo..X.XoXoX.$@#@.   ",
"  .X.OOOO.O..X@###@#.   ",
"  .O#oX.OOO@#@#@#..     ",
"  ...XX#.O.#@###.%&%    ",
"  .oX..@$@#@$@.%%%      ",
"  .XX.@###@..%&%        ",
"  .X...@#@.%%%          ",
"    &%&%.%&%            ",
"      %%%%              ",
"       %                "};
