/* XPM */
static char * create_xpm[] = {
/* width height ncolors cpp [x_hot y_hot] */
"32 32 8 1 0 0",
/* colors */
" 	s iconGray4	m white	c #949494949494",
".	c #BEBEBEBEBEBE",
"X	s iconColor1	m black	c black",
"o	c #A0A052522D2D",
"O	s iconColor2	m white	c white",
"+	c #000000008080",
"@	s iconColor6	m white	c yellow",
"#	c #707080809090",
/* pixels */
"                                ",
"              .                 ",
"        .                       ",
"    .      .                    ",
"  .   .  .       .              ",
"  .        . . .                ",
"    . . .   .    .              ",
"  .      .                      ",
"    .           XXXXXXXXXXX     ",
"       .        XoooooooooX     ",
"    .            XXXXXXXXX      ",
"                 XO++XOOOX      ",
"      .          XO++XOOOX      ",
"        XX       XOOXOOOOX      ",
"         X       X+++XOOOX      ",
"         X       XO++XOOOX      ",
"        XXXXXXXXXXO++XOOXXXX    ",
"        X@o@o@o@@XXXXXXX@@@@X   ",
" XX     X@o@o@o@@XoooooX@@@@X   ",
" X@X    XXXXXXXXXXXXXXXXXXX@X   ",
"  XXX  X###################X    ",
"   X@XXXXXXXXXXXXXXXXXXXXoo#X   ",
"   X@X@@@@@@@@@@@@@@@@@@@Xo#X   ",
"   X@XXXXXXXXXXXXXXXXXXXXoo#X   ",
"  XXX  X#oooooooooooooooooo#X   ",
" X@X    X##################X    ",
" XX      XXXXXXXXXXXXXXXXXX     ",
"                                ",
"                                ",
"                                ",
"                                ",
"                                "};
