/* XPM */
static char * danger_xpm[] = {
/* width height ncolors cpp [x_hot y_hot] */
"32 32 7 1 0 0",
/* colors */
" 	s none	m none	c none",
".	c #2F2F4F4F4F4F",
"X	s iconColor1	m black	c black",
"o	s iconColor2	m white	c white",
"O	c #707080809090",
"+	c #DCDCDCDCDCDC",
"@	c #BEBEBEBEBEBE",
/* pixels */
"                                ",
"                                ",
"                                ",
"                                ",
"         .XXX     .XXX          ",
"        .X           X.         ",
"       .              XX        ",
"       XXXXXX    XXXXXXX        ",
"       XooooOX  Xoooo+OX        ",
"      X+oooo+OXX+oooo++X        ",
"     XXooooo+@XXoooooo+XX       ",
"     X+ooXXo+@OXooXXoo+OX       ",
"     X+ooXXo@@OXooXXo+@OX       ",
"     XX+oo++@OXX++oo+@@XX       ",
"      XO++@@O.XXO@++@@OX        ",
"       XXOO.XX  XXXOOXXX        ",
"         XXX      XXXX          ",
"                                ",
"        XXXXXXXXXXXXXXXX        ",
"     XXXooo.ooo.ooo.oooXX       ",
"    XXo.o@@.+@@.o+@.o@@.oX      ",
"    X.o...............O.@.X     ",
"    X...oo+.ooo.ooo.o...O.X     ",
"    X.o.o++.++@.o+@.o+o...X     ",
"    X.o.o@@.+@XXXXO.o@@.+.X     ",
"    X.o.o@OXXX    XXX@@.+.X     ",
"     XX.o@XX         XO.XX      ",
"       XXX            XX        ",
"                                ",
"                                ",
"                                ",
"                                "};
