/* XPM */
static char * delete_xpm[] = {
/* width height ncolors cpp [x_hot y_hot] */
"32 32 6 1 0 0",
/* colors */
" 	s iconGray4	m white	c #949494949494",
".	s iconColor1	m black	c black",
"X	s iconColor6	m white	c yellow",
"o	s iconColor3	m black	c red",
"O	c #BEBEBEBEBEBE",
"+	s iconColor2	m white	c white",
/* pixels */
"                                ",
"                                ",
"                                ",
"                                ",
"                                ",
"                                ",
"                                ",
"        ..  X     o             ",
"       .  .  o                  ",
"      .    .  Xo                ",
"      .   o.X o                 ",
"      .  oX . o                 ",
"     .    oXX.   o              ",
"    .     o o .                 ",
"   .    o      .                ",
"   .    o                       ",
"   .                            ",
"   ..........................   ",
"   .O.oooo.X+.ooooooo.X+.oooo.  ",
"   .O.oooo.+X.ooooooo.+X.oooo.  ",
"  ..........+X.........+X.....  ",
"  .O.O.oooo.X+.ooooooo.X+.oooo. ",
"  .O.O.oooo.+X.ooooooo.+X.oooo. ",
"  .........X+.........+X......  ",
"   .O.oooo.+X.ooooooo.X+.oooo.  ",
"   .O.oooo.X+.ooooooo.+X.oooo.  ",
"    .........................   ",
"                                ",
"                                ",
"                                ",
"                                ",
"                                "};
