/* XPM */
static char * delivery_xpm[] = {
/* width height ncolors cpp [x_hot y_hot] */
"24 26 33 1 0 0",
/* colors */
" 	s none	m none	c none",
".	s iconColor1	m black	c black",
"X	c #99992020FFFF",
"o	c #CCCC2020AAAA",
"O	c #FFFFBFBF0000",
"+	c #FFFF9F9F0000",
"@	c #6666BFBFFFFF",
"#	c #FFFFDFDF0000",
"$	c #CCCCDFDFFFFF",
"%	c #3333DFDF0000",
"&	c #333340405555",
"*	c #9999FFFFAAAA",
"=	s iconColor3	m black	c red",
"-	c #9999DFDFFFFF",
";	c #333360605555",
":	c #3333BFBF5555",
"?	c #999920205555",
">	c #00008080FFFF",
",	c #66668080AAAA",
"<	c #999980805555",
"1	c #333380805555",
"2	c #CCCC20200000",
"3	c #33339F9FFFFF",
"4	c #33339F9F5555",
"5	c #000040405555",
"6	c #FFFFDFDFAAAA",
"7	c #333360600000",
"8	c #3333BFBF0000",
"9	c #3333DFDF5555",
"0	c #CCCC9F9F5555",
"q	c #CCCC80805555",
"w	c #CCCC80800000",
"e	c #00008080AAAA",
/* pixels */
"                        ",
"                        ",
"           .            ",
"         ..Xo..         ",
"       ..O+X@#$.        ",
"     .%&*&=&-&;.        ",
"   ;&;:;**?;>;&.        ",
"  ;,<&1,%:2&3&;.        ",
"  145;$,:;$;$;&.        ",
"  41;&6,6&6&6&;.;       ",
"  &4&;$;$;$;$;&;:       ",
"    7&1&6&2&3&8:+       ",
"    54&;:;&%:9+O+       ",
"    ;14,%&%:%:+++       ",
"    &014+O+++O++:       ",
"    7qwq++++++++%11.    ",
"    50q0+O+O+O+%:414.   ",
"    ;qwq%:++++%&;141.   ",
"    &4q4:%:9:;141..     ",
"  ..7111%:8&7111.,<,    ",
"  .4e;&4:;&4e4.,,,      ",
"  <,.141114..,<,        ",
"  ,,,..414.,,,          ",
"    <,<,.,<,            ",
"      ,,,,              ",
"       ,                "};
