/* XPM */
static char * documentation_xpm[] = {
/* width height ncolors cpp [x_hot y_hot] */
"24 26 25 1 0 0",
/* colors */
" 	s none	m none	c none",
".	s iconColor1	m black	c black",
"X	c #FFFFFFFFAAAA",
"o	c #333360605555",
"O	c #CCCC80805555",
"+	c #FFFFDFDFAAAA",
"@	c #333340405555",
"#	c #66668080AAAA",
"$	c #CCCCDFDFFFFF",
"%	c #FFFFDFDFFFFF",
"&	s iconColor2	m white	c white",
"*	c #CCCCDFDFAAAA",
"=	c #33339F9FFFFF",
"-	c #999920205555",
";	c #CCCC20200000",
":	c #00008080FFFF",
"?	c #CCCC40400000",
">	c #999920200000",
",	c #CCCC80800000",
"<	c #FFFF80800000",
"1	c #CCCC9F9F5555",
"2	c #999940405555",
"3	c #999960600000",
"4	c #CCCC60600000",
"5	c #999980805555",
/* pixels */
"                        ",
"                        ",
"                        ",
"        .X              ",
"         X.             ",
"        oOX.  +++.      ",
"     . o@X#X +..++$     ",
"     XXOX@o%X.&&+++.    ",
"     .&X#o&X&+..$+*+.=  ",
"  . X-;&X%X&X...++++.:  ",
"   X.?-.&X&X&X.......=  ",
"  X%;OXO;>;.XXX%..  ..  ",
"   .&X.?-;.X&X&X.       ",
"    X..-;-.&X.X&.       ",
"     X&...&X&X...       ",
"      .%XX.%X.,O<O,.    ",
"       X.X&X&.O1O1O1.   ",
"      ..X%X..O,O,O,O.   ",
"    .123...OO1OOO..     ",
"  ..<O,O4..O<O,O.#5#    ",
"  .1O1O1O1O1O1.###      ",
"  5#.O,O,O,..#5#        ",
"  ###..OO1.###          ",
"    5#5#.#5#            ",
"      ####              ",
"       #                "};
