/* XPM */
static char * documentation_open_xpm[] = {
"24 26 25 1",
" 	c #FFFFFFFF0000",
".	c #000000000000",
"X	c #FFFFFFFFAAAA",
"o	c #FFFFFFFFFFFF",
"O	c #333360605555",
"+	c #CCCC80805555",
"@	c #FFFFDFDFAAAA",
"#	c #333340405555",
"$	c #66668080AAAA",
"%	c #CCCCDFDFFFFF",
"&	c #FFFFDFDFFFFF",
"*	c #CCCCDFDFAAAA",
"=	c #33339F9FFFFF",
"-	c #999920205555",
";	c #CCCC20200000",
":	c #00008080FFFF",
"?	c #CCCC40400000",
">	c #999920200000",
",	c #CCCC80800000",
"<	c #FFFF80800000",
"1	c #CCCC9F9F5555",
"2	c #999940405555",
"3	c #999960600000",
"4	c #CCCC60600000",
"5	c #999980805555",
"                        ",
"                        ",
"                        ",
"        .X              ",
"        oX.             ",
"       oO+X.  @@@.      ",
"     .oO#X$Xo@..@@%     ",
"     XX+X#O&X.oo@@@.    ",
"    o.oX$OoXo@..%@*@.=  ",
"  .oX-;oX&XoX...@@@@.:  ",
"  oX.?-.oXoXoX.......=  ",
"  X&;+X+;>;.XXX&..  ..  ",
"   .oX.?-;.XoXoX.       ",
"    X..-;-.oX.Xo.       ",
"     Xo...oXoX...       ",
"      .&XX.&X.,+<+,.    ",
"       X.XoXo.+1+1+1.   ",
"      ..X&X..+,+,+,+.   ",
"    .123...++1+++..     ",
"  ..<+,+4..+<+,+.$5$    ",
"  .1+1+1+1+1+1.$$$      ",
"  5$.+,+,+,..$5$        ",
"  $$$..++1.$$$          ",
"    5$5$.$5$            ",
"      $$$$              ",
"       $                "};
