/* XPM */
static char * engine_xpm[] = {
/* width height ncolors cpp [x_hot y_hot] */
"24 26 22 1 0 0",
/* colors */
" 	s none	m none	c none",
".	c #CCCCBFBFAAAA",
"X	c #9999BFBFFFFF",
"o	c #66668080AAAA",
"O	c #CCCCDFDFFFFF",
"+	c #999980805555",
"@	c #333340405555",
"#	c #333360605555",
"$	c #333360600000",
"%	c #FFFFDFDFAAAA",
"&	s iconColor1	m black	c black",
"*	c #999920205555",
"=	c #CCCC40400000",
"-	c #999920200000",
";	c #CCCC20200000",
":	s iconColor2	m white	c white",
"?	c #CCCCBFBFFFFF",
">	c #000040405555",
",	c #CCCC80800000",
"<	c #CCCC80805555",
"1	c #CCCC9F9F5555",
"2	c #FFFF80800000",
/* pixels */
"                        ",
"                        ",
"           .XoX.X.XOO   ",
"        ..+@..#@$o#o%o  ",
"        Xo@#X.X#XoX.OO  ",
"        ..#.%.+@#.+&    ",
"        o.@.o.X.X&&&*=  ",
"        +@+..&&*&-&*;-  ",
"        &&X.&;&=*&*&*&  ",
"         &&...&&;.;.;&  ",
"         =*.X.X&&.*.*&  ",
"         -;*;&.&&.;*;-  ",
"       &*&@=*&*=&;&=*;  ",
"      &*;*;*;&;*;&;&&&  ",
"     =O#*&&;*=&;*=oo&   ",
"    $::?;&&&&-&&+&+o$   ",
"    >O:#*&&=*;&oo&&o>&  ",
"    &&&*,&&&&&+o&&&<&&  ",
"   &&&&&&&&&&&&o&1&o    ",
"   &&&&@&&#&+&&&2&+o+   ",
"  &&&&&&&&&&&1&&ooo     ",
"   o+@&&,<,<&o+o        ",
"  oooo@<<1<&&oo         ",
"    +o+o&&+o+           ",
"       ooo              ",
"        +               "};
