/* XPM */
static char * envir60_xpm[] = {
/* width height ncolors cpp [x_hot y_hot] */
"24 26 22 1 0 0",
/* colors */
" 	s none	m none	c none",
".	c #AAAAAAAAAAAA",
"X	c #3E3E3E3E3E3E",
"o	c #515151515151",
"O	c #2F2F2F2F2F2F",
"+	c cyan",
"@	c #777777777777",
"#	c cyan",
"$	c #7D7D7D7D7D7D",
"%	s iconColor1	m black	c black",
"&	c blue",
"*	c blue",
"=	c blue",
"-	c green",
";	c cyan",
":	c #838383838383",
"?	s iconGray2	m white	c #bdbdbdbdbdbd",
">	c red",
",	c #646464646464",
"<	c #767676767676",
"1	c #484848484848",
"2	c #5E5E5E5E5E5E",
/* pixels */
"                        ",
"                        ",
"                        ",
"           ..X          ",
"          .oO+          ",
"        .X+@+#  .Xo     ",
"       $#+#+#%.o&*&     ",
"       $+@+%%.o=-=-     ",
"       $#+.oO*&*&*&     ",
"       ;+#:=*&-=*&-     ",
"       ;#+$*&*&*& &     ",
"       ;+@:=-=%%. -     ",
"       ;#+;*%?Xo> &     ",
"       ;+#;%.X>>> -     ",
"       ;#%.o>>>>>       ",
"       ;%$>>>>>>> ,     ",
"       ;%$>>>>>>> ,<    ",
"       ;%$>>>>>>> <,    ",
"     oX;%;>>>>>%,       ",
"    1Xo%%;>>>>%,%$:$    ",
"   <2oXo%;>%%<%$$$      ",
"  :$%,<X%%<%%$:$        ",
"  $$$%%<%<%$$$          ",
"    :$:$%$:$            ",
"      $$$$              ",
"       $                "};
