/* XPM */
static char * executable_xpm[] = {
/* width height ncolors cpp [x_hot y_hot] */
"24 26 21 1 0 0",
/* colors */
" 	s none	m none	c none",
".	c #333360605555",
"X	c #999940405555",
"o	c #999960600000",
"O	c #999960605555",
"+	c #333340405555",
"@	c #CCCC60600000",
"#	c #333360600000",
"$	c #000040405555",
"%	c #FFFFDFDFAAAA",
"&	s iconColor1	m black	c black",
"*	c #66668080AAAA",
"=	c #CCCC9F9FAAAA",
"-	c #999980805555",
";	c #CCCCDFDFFFFF",
":	c #CCCCBFBFAAAA",
"?	c #CCCCDFDFAAAA",
">	c #CCCCBFBFFFFF",
",	c #CCCC40400000",
"<	c #CCCC20200000",
"1	c #999920205555",
/* pixels */
"                        ",
"                        ",
"         .XoOo+         ",
"       +@+@+#X@X@       ",
"       o$O+oXOOoX       ",
"      .X%+.X.%%%%       ",
"     &+.+oX%%%+.+**&    ",
"     *.=#X@%%+&*-;%*    ",
"    **+:$:+.&*;?;;;?;&  ",
"   &-*-+-+.*%;%;%;%;%&  ",
"   &+***+.*;;%;;;%;;;&  ",
"   &#&&+-*%>%;%>%;%>%&  ",
"  +.$.+.$.;?;;;?;;;?;&  ",
"  .+.+.+&+%;%;%;%;%;%&  ",
"   &+.+;&.;;;%;;;%;;&   ",
"   &#&&+#+%>%;%>%;%&    ",
"   &$.&.$.;?;;;?;&&,&   ",
"    &+&+.+%;%;%&.+<1&   ",
"    &.&.+.;;;&+.1&&     ",
"  &&#+.&#+%&&+<1&*-*    ",
"  &,1.+.$.+.1<&***      ",
"  -*&1<1.+<&&*-*        ",
"  ***&&<1,&***          ",
"    -*-*&*-*            ",
"      ****              ",
"       *                "};
