/* XPM */
static char * factory_open_xpm[] = {
"28 28 12 1",
" 	c #FFFFFFFF0000",
".	c #000000000000",
"X	c #99998080AAAA",
"o	c #99999F9FAAAA",
"O	c #FFFFFFFFFFFF",
"+	c #FFFF00000000",
"@	c #CCCCBFBFAAAA",
"#	c #9999BFBFFFFF",
"$	c #00000000FFFF",
"%	c #CCCC9F9FAAAA",
"&	c #FFFF0000FFFF",
"*	c #0000FFFF0000",
"          ....              ",
"          .X...             ",
"   .........oo.........     ",
" .O+++++++++...++++++++.    ",
"..O.++++++++++++++++++++    ",
"OO...+++...+++...+++...+    ",
".O..+...+++...+++...+++..   ",
"@....+++...+++...+++...++   ",
"#@.OO.+++++++++++++++++++.  ",
"@.@.O.++++++++++++++++++++. ",
"#$.@...++++++++++++++++++++ ",
"@$.%@...+++...+++...+++...+ ",
"#..@.@......................",
"@@@@$.@@@@@@@@@@@@@@@@@@@@@.",
"#@#@$.#@#@..#@#.#@#..@#..@#.",
"@@@%..@%@@$$.@.$.@.$.@.$.@@.",
"#@.@#@#@#@...@...@...@...@#.",
"@.@@.@@@@@...@...@...@...@@.",
"#$.@&.#@#.#@#@.@#@.@#@#@#@#.",
"@$.%@.@%@.@%@@.%. ..@@.%@@@.",
"#..@#@#@#@#@#@#@.  .#@#@#@#.",
".@..*.@@.@@@@@@.@@.@@@@@@@@.",
" .#.*.#@#$...$.@#@.@#.......",
" ...*.@%@$...$.%@.*.@.......",
"   .*.#@#$...$.@.**.........",
"    ..@@@......@..*..@@@@@@.",
"     .#@#......@.**..@#.#@#.",
"      .%.@@.@@@%.......%@@.."};
