/* XPM */
static char * home3_xpm[] = {
/* width height ncolors chars_per_pixel */
"32 32 13 1",
/* colors */
" 	c none	m none	c none",
".	c slate grey",
"X	c black",
"o	c sienna",
"O	c orange",
"+	c red",
"@	c tan",
"#	c wheat",
"$	c lime green",
"%	c sky blue",
"&	c dodger blue",
"*	c sea green",
"=	c peru",
/* pixels */
"                                ",
"              . ..  ..          ",
"            .. .  .     .       ",
"            .                   ",
"           .                    ",
"          XXX                   ",
"          XoX                   ",
"      XXXXXoXXXXXXXXXXXX        ",
"      XOOOXXOOO+OOOO+OOX        ",
"     XXOO+O+OO+OOOO+OOO+X       ",
"     X@X+OOO+OOOO+OOOO+OX       ",
"    X@@XOO+OOOO+OOOO+OOOOX      ",
"    XX@XX+OOO+OO+O+OO+O+OX      ",
"    XoX@XOOO+OOOOOO+OOOOOOX     ",
"    X#oXXXXXXXXXXXXXXXXXXXX     ",
"    X##oXoooooooooooooooo#X     ",
"    X#X#X#################X     ",
"    X#X#X##XX###XX###ooo##X     ",
"    X#X#X#X%&X#X%&X#o###o#X     ",
"    X#X#X#X%&X#X%&X##XXX##X     ",
"   *X###X#X&&X#X&&X#X===X#X*    ",
"  *$X###X#XXXX#XXXX#X===X#X$*$  ",
" $$$X###X###########X===X#X$$*$ ",
"$*$*X#*#X###########XX==X#X**$*$",
"$$$$$X*#X##*#####*##X===X#X$$*$*",
"**$*$$*#X#*###*#*###X===X#X*$$*$",
"$$$*$*$XX#*#*#*#*#*#XXXXX#X$*$*$",
"*$*$$**$XX*X*X*X*X*XX@@@XXX*$$$*",
" *$$$**$*$*$**$$*$*$$@@@@$$$$*$ ",
"  **$$$$*$**$$$*$*$$$*@@@@*$**  ",
"     $$*$$$$**$*$*$**$@@@       ",
"                                "};
