/* XPM */
static char * frontal_xpm[] = {
/* width height ncolors cpp [x_hot y_hot] */
"24 26 29 1 0 0",
/* colors */
" 	s none	m none	c none",
".	s iconColor1	m black	c black",
"X	c #333360605555",
"o	c #333340405555",
"O	c #333360600000",
"+	c #66668080AAAA",
"@	c #999980805555",
"#	c #000040405555",
"$	c #CCCCDFDFFFFF",
"%	c #CCCCBFBFAAAA",
"&	c #FFFFDFDFAAAA",
"*	c #CCCCDFDFAAAA",
"=	c #FFFFBFBF0000",
"-	c #FFFF9F9F0000",
";	s iconColor3	m black	c red",
":	c #3333DFDF0000",
"?	c #3333BFBF5555",
">	c #CCCCBFBFFFFF",
",	c #3333BFBF0000",
"<	c #33339F9FFFFF",
"1	c #00008080FFFF",
"2	c #00009F9FFFFF",
"3	c #999940405555",
"4	c #CCCC60600000",
"5	c #CCCC80805555",
"6	c #999960600000",
"7	c #CCCC9F9F5555",
"8	c #999960605555",
"9	c #CCCC80800000",
/* pixels */
"                        ",
"                        ",
"          .....XoXo     ",
"       .....OoXoOoX+@+  ",
"     .....oX#XoX#X++++  ",
"  .....oXoXoXoX+@+@o@+  ",
"  ...XoXoXoX+++++X$%++  ",
"  ...oXoOo@+@+@+O$&%@+  ",
"  ......+++++X$*$=$%++  ",
"  ......@+X$&$---$&%@+  ",
"  ......+X$$$=--;:?%++  ",
"  ......@o&>-;;;:?,%@+  ",
"  ......+X;;;$?:$;$%++  ",
"  ......@o&;&$:$&;;%@+  ",
"  ......+X$$$<1$$&.+++  ",
"  ......@o<1<$&>.+@+.   ",
"  ......+X2*$$..+++..   ",
"    ....@o&$.+@+.345.   ",
"    ....+..+++.65..     ",
"  ..4...@+@+@.45.+@+    ",
"  .758..++.637.+++      ",
"  @+.593.39..+@+        ",
"  +++..587.+++          ",
"    @+@+.+@+            ",
"      ++++              ",
"       +                "};
