/* XPM */
static char * idl_xpm[] = {
/* width height ncolors cpp [x_hot y_hot] */
"24 26 17 1 0 0",
/* colors */
" 	s none	m none	c none",
".	s iconColor3	m black	c red",
"X	s iconColor1	m black	c black",
"o	c #FFFFDFDFAAAA",
"O	c #CCCCDFDFFFFF",
"+	c #FFFF9F9F0000",
"@	c #CCCCBFBFFFFF",
"#	s iconColor2	m white	c white",
"$	c #CCCCDFDFAAAA",
"%	c #FFFFBFBF0000",
"&	c #333380805555",
"*	c #333340405555",
"=	c #000040405555",
"-	c #333360605555",
";	c #33339F9F5555",
":	c #00008080AAAA",
"?	c #333360600000",
/* pixels */
"                        ",
"                        ",
"                        ",
"     .X                 ",
"    X..X                ",
"    .....X              ",
"   X....XX       oX     ",
"   X...X        XOX     ",
"  X....X        XOX     ",
"  XXX..X   X    XXX+    ",
"    X..X  XOX  XOXX+X   ",
"    X..XoOX@XXoX##X+++  ",
"    X..XX#X$OXOX#X+%+X  ",
"    X..XX##OXXoXX+++X   ",
"  XOX.XO###XXX+++%X+    ",
"  XXoOo@oX&X++++X*XX    ",
"    XXX$OOX%+%XX=-&X    ",
"    o..X++++X*-*-&;X    ",
"  XOX..++%X-*;&;&X*     ",
"  X@X.X+XX-*;&&&X*-*    ",
"  X;:%X-=-&;:X*-=       ",
"  -*X&-&&&;X-*-         ",
"  *-*X&;&;X-*-          ",
"   *?*-X?*-             ",
"     -*-=               ",
"       *                "};
