/* XPM */
static char * interface_open_xpm[] = {
"24 26 10 1",
" 	c #FFFFFFFF0000",
".	c #000000000000",
"X	c #FFFF9F9F0000",
"o	c #FFFF00000000",
"O	c #FFFFBFBF0000",
"+	c #66668080AAAA",
"@	c #33339F9F5555",
"#	c #333380805555",
"$	c #999980805555",
"%	c #00008080AAAA",
"                        ",
"                 .      ",
"              ..X.o.    ",
"            .XXXX.oo.   ",
"           .XOXO.ooo    ",
"     .  ..XXX.ooooo+    ",
"    ...XXOX.oooo...     ",
"    ..XXXX.ooo..X.o.    ",
"   .XOX.oooo.OXOX.oo.   ",
"  .XX.oooo.XXX..ooo.    ",
"   .X.oo..XXX.ooooo.    ",
"     ..XXXX.oooo...     ",
"    .OXO..ooo.XOX.oo.   ",
"   .XXX.oooo.XXXX.oo.   ",
"  .XX.oooo.XXO..ooo.    ",
"    ..o.XXXX.oooo.o.    ",
"     ..OXOX.oooo...@.   ",
"    .XXX..ooo.@###@#.   ",
"   .XO.oooo.#@#@#..     ",
"  .XX.oooo.#@###.+$+    ",
"  .@..o.%@#@%@.+++      ",
"  $+.#@###@..+$+        ",
"  +++..@#@.+++          ",
"    $+$+.+$+            ",
"      ++++              ",
"       +                "};
