/* XPM */
static char * package_xpm[] = {
/* width height ncolors cpp [x_hot y_hot] */
"24 26 24 1 0 0",
/* colors */
" 	s none	m none	c none",
".	s iconColor1	m black	c black",
"X	c #CCCC80805555",
"o	c #CCCC9F9F5555",
"O	c #CCCCBFBFAAAA",
"+	c #CCCC20200000",
"@	c #66668080AAAA",
"#	c #CCCC80800000",
"$	c #9999BFBFFFFF",
"%	c #999980805555",
"&	c #999920205555",
"*	c #CCCC40400000",
"=	c #999960600000",
"-	c #999940405555",
";	c #CCCC60600000",
":	c #999920200000",
"?	c #999960605555",
">	c #33339F9F5555",
",	c #333380805555",
"<	c #333360600000",
"1	c #000040405555",
"2	c #333360605555",
"3	c #333340405555",
"4	c #00008080AAAA",
/* pixels */
"                        ",
"                        ",
"                        ",
"                        ",
"                        ",
"                        ",
"                        ",
"                        ",
"          ....Xo..      ",
"         ..X.O+@#X#     ",
"         .$......oX     ",
"       .%.#&..+&.X#     ",
"     oX.Xo.*&+&*.oX     ",
"     ..X#.#&+&+&.X#     ",
"     =-=.oX+&*&+.oX     ",
"     -;-.X#&+:+&.X#.    ",
"     ??=.oX*&+&*.oX>.   ",
"     -;-.X#&+&+&.,>,.   ",
"    .=-=.oX+&*.>,..     ",
"  ..<-;-.X#&+.,,.@%@    ",
"  .>123..o.>4>.@@@      ",
"  %@.,>32,>..@%@        ",
"  @@@..>,>.@@@          ",
"    %@%@.@%@            ",
"      @@@@              ",
"       @                "};
