/* XPM */
static char * journal_xpm[] = {
/* width height ncolors cpp [x_hot y_hot] */
"32 32 8 1 0 0",
/* colors */
" 	s iconGray4	m white	c #949494949494",
".	s iconColor1	m black	c black",
"X	c #F5F5DEDEB3B3",
"o	s iconColor5	m black	c blue",
"O	c #2F2F4F4F4F4F",
"+	s iconColor3	m black	c red",
"@	c #BEBEBEBEBEBE",
"#	c #707080809090",
/* pixels */
"                                ",
"                                ",
" .............................. ",
" .XXXXXXXXXXXXXXXXXXXXXXXXXXXX. ",
" .XooooXXXXXXXXX..XXXXXXXooooX.O",
" .XXXXXX.X.X.X.X.XXX.X..XXXXXX.O",
" .X++++XX..XX.XX..X..X..X++++X.O",
" .X++++XXXXXXXXXXXXXXXX.X++++X.O",
" .XXXXXXXXXXXXXXXXXXXXXXXXXXXX.O",
" ..............................O",
" .XXXXXXXXXXXXXXXXXXXXXXXXXXXX.O",
" .XX...X.XX.X....X...@X@..@X.X.O",
" .XX.#XXXOOXXX.XXX.XX.X.XX.X.X.O",
" .XX.XXXXOOXXX.XXX.X.XX....XXX.O",
" .XX...X.XX.XX.XXX.XX.X.XX.X.X.O",
" .XXXXXXXXXXXXXXXXXXXXXXXXXXXX.O",
" ..............................O",
" .XXXXXXXXXXXXXXXXXXXXXXXXXXXX.O",
" .X.X.X.XXO..........OX.X..X.X.O",
" .X..X...X.@O@@@@@@@@.XX.X..XX.O",
" .XXXXXXXX............XXXXXXXX.O",
" .X.#O...X.##########.X.#..#OX.O",
" .XXXXXXXX.##########.XXXXXXXX.O",
" .X#.O.#.X.##########.X#.O..#X.O",
" .XXXXXXXX.##########.XXXXXXXX.O",
" .X.##..OX.##########.X.#.#..X.O",
" .XXXXXXXXO..........OXXXXXXXX.O",
" .X.O.#..XXXXXXXXXXXXXXO.#...X.O",
" .XXXXXXXXXX.#O..#..XXXXXXXXXX.O",
" .XXXXXXXXXXXXXXXXXXXXXXXXXXXX.O",
"  .............................O",
"   OOOOOOOOOOOOOOOOOOOOOOOOOOOOO"};
