/* XPM */
static char * nocdlpack_open_xpm[] = {
"24 26 18 1",
" 	c #FFFFFFFF0000",
".	c #66668080AAAA",
"X	c #333340405555",
"o	c #999980805555",
"O	c #333360600000",
"+	c #333360605555",
"@	c #000000000000",
"#	c #9999BFBFFFFF",
"$	c #CCCCBFBFAAAA",
"%	c #CCCC80805555",
"&	c #CCCC9F9F5555",
"*	c #FFFF00000000",
"=	c #CCCC80800000",
"-	c #FFFF80800000",
";	c #999940405555",
":	c #999960600000",
"?	c #CCCC60600000",
">	c #999960605555",
"                        ",
"                        ",
"          ..X           ",
"         XoXO           ",
"         +X@@           ",
"          oX            ",
"         +X+#+          ",
"        OX$.$$          ",
"        #.%&*+          ",
"        $$*%=X          ",
"        #*%%%$          ",
"        $X=%@$          ",
"        #@@$.$          ",
"        $$$$o$@         ",
"        #.#$.$%%@       ",
"        $@$$@$@%-%=@    ",
"        #$#$#.X+%&%&@   ",
"      @;$.$@o@=%=%=%@   ",
"    @:;+@$X@%&%%%@@     ",
"  @@?;?@O@@%-%=%@.o.    ",
"  @&%&>@%&%&%&@...      ",
"  o.@%=%=%=@@.o.        ",
"  ...@@%%&@...          ",
"    o.o.@.o.            ",
"      ....              ",
"       .                "};
