/* XPM */
static char * config_xpm[] = {
/* width height ncolors cpp [x_hot y_hot] */
"32 32 9 1 0 0",
/* colors */
" 	s iconGray4	m white	c #949494949494",
".	s iconColor1	m black	c black",
"X	c #707080809090",
"o	s iconColor2	m white	c white",
"O	c #BEBEBEBEBEBE",
"+	c #FFFFFAFACDCD",
"@	c #2F2F4F4F4F4F",
"#	s iconColor5	m black	c blue",
"$	c #F5F5DEDEB3B3",
/* pixels */
"           ..........           ",
"         ...XXXXXXXX...         ",
"       ..XXXXoXXooOXXXX..       ",
"      .oXXXXXoXXXOoXXXXXo.      ",
"     .XOoXXXXoXX++XXXXXXoX.     ",
"    .XXXOoXXXoXXoooXXXXoX@@.    ",
"   .XXXXXXXXXXXXXXXXXX@o@@@@.   ",
"  .oXXXXXXXXX######@@@@@@@@@..  ",
"  .XooXXXXX##########@@@@@@@@.  ",
" .XXXOoXXX###OOOOOO###@@@@@@@+. ",
" .XXXXXXX##OO......OO##@@@@@+X. ",
"..XXXXXX##O.........O##.@@@+X@..",
".XXXXXXX##O..........O##.@@@@@@.",
".XXXXXX##O...........O##..@@@@@.",
".XOoOXX##O...$...$...O##...XoX@.",
".XoXoXX##O....$..$...O##....@o@.",
".XOooXX##O....$$$$$....#....oX@.",
".XXXoXX##O.....$$$$$.$......@o@.",
".XXXoXX@##O....$$.$$.$.....XoX@.",
".XXXXXX@###O....$.$$$$$.....@@@.",
"..XXXXX@@###OO.....$$$$....@@@..",
" .XooX@@@@####OOOO.$$.$$...@@@. ",
" .oOXX@@@@@#######..$..$..@++@. ",
"  .XXX@@@@@@.#####.....$..@@@.  ",
"  ..X@@@@@@@@............@@@..  ",
"   .X@@@o@@@@@.XoX......@@@@.   ",
"    .@@oX@@@@@@o......@+@@@.    ",
"     .oX@@@@@@@ooX@@@@@X+@..    ",
"      ..@@@@@@@o@o@@@@@@+.      ",
"       ..@@@@@@XoX@@@@@..       ",
"         ...@@@@@@@@...         ",
"           ..........           "};
