/* XPM */
static char * parcel_xpm[] = {
/* width height ncolors cpp [x_hot y_hot] */
"24 26 16 1 0 0",
/* colors */
" 	s none	m none	c none",
".	c #CCCCDFDFFFFF",
"X	c #FFFFDFDFAAAA",
"o	c #CCCCDFDFAAAA",
"O	s iconColor1	m black	c black",
"+	c #333340405555",
"@	c #333360605555",
"#	c #CCCCBFBFFFFF",
"$	c #333360600000",
"%	s iconColor7	m white	c cyan",
"&	c #000040405555",
"*	c #66668080AAAA",
"=	c #33339F9F5555",
"-	c #333380805555",
";	c #999980805555",
":	c #00008080AAAA",
/* pixels */
"                        ",
"                        ",
"                        ",
"             .X         ",
"            ...o        ",
"          X.X.X.X       ",
"       ..X...X.O+@      ",
"      X#X.X#X.O+$%      ",
"     ..o...OO@+@%@      ",
"    @+O.XO@+@+@%@+      ",
"    +@+OO@+@+@%@+%      ",
"    $+@+$+@+$%@+%+      ",
"    &@+@&@+@%@+%&@      ",
"    @+@+@+@%@+%+@+      ",
"    +@+@+@%@+%+@+@      ",
"    $+@+$%@*%+@+$+      ",
"    &@+@%@*%&*+@&@ =    ",
"    @+@+@+%+@+@+O-=-    ",
"    +@+@+%+@+@O=-       ",
"    $+@+%+@+$O--O*;*    ",
"   =:OO@&@O=:=O***      ",
"  ;*O-=-O-=OO*;*        ",
"  ***OO=-=O***          ",
"    ;*;*O*;*            ",
"      ****              ",
"       *                "};
