/* XPM */
static char * parcel_open_xpm[] = {
"24 26 20 1",
" 	c #FFFFFFFF0000",
".	c #333340405555",
"X	c #333360605555",
"o	c #333380805555",
"O	c #33339F9F5555",
"+	c #333360600000",
"@	c #3333DFDF0000",
"#	c #00008080AAAA",
"$	c #3333BFBF5555",
"%	c #3333DFDF5555",
"&	c #3333BFBF0000",
"*	c #FFFF9F9F0000",
"=	c #000040405555",
"-	c #FFFFBFBF0000",
";	c #CCCC9F9F5555",
":	c #CCCC80805555",
"?	c #CCCC80800000",
">	c #000000000000",
",	c #66668080AAAA",
"<	c #999980805555",
"                        ",
"                        ",
"                        ",
"                        ",
"                        ",
"           .XoX         ",
"         XoOoOoO.       ",
"        +oooOoo.@       ",
"     X.O#OoO#X$@$       ",
"    X.OoooX$@$@$X       ",
"    .O.OoO$%$@$X$       ",
"    +ooo@$&$@.&$*       ",
"    =O.O$%.@$%*-*       ",
"    XoOo@.@$@$***       ",
"    .;oO*-***-**$       ",
"    +:?:********@oo>    ",
"    =;:;*-*-*-*@$OoO>   ",
"    Xo?:@$****@.XoOo>   ",
"    .OoO$@$%$XoOo>>     ",
"  >>+ooo@$&.+ooo>,<,    ",
"  >O#X.O$X.O#O>,,,      ",
"  <,>oOoooO>>,<,        ",
"  ,,,>>OoO>,,,          ",
"    <,<,>,<,            ",
"      ,,,,              ",
"       ,                "};
