/* XPM */
static char * patches_xpm[] = {
/* width height ncolors cpp [x_hot y_hot] */
"32 32 12 1 0 0",
/* colors */
" 	s background	m black	c #949494949494",
".	c #1E1E9090FFFF",
"X	c #FFFFFAFACDCD",
"o	c #BEBEBEBEBEBE",
"O	c #707080809090",
"+	s iconColor5	m black	c blue",
"@	c #000000008080",
"#	c #2F2F4F4F4F4F",
"$	s iconColor1	m black	c black",
"%	s iconColor2	m white	c white",
"&	c #F5F5DEDEB3B3",
"*	s iconColor3	m black	c red",
/* pixels */
"                                ",
"                                ",
"                                ",
"                                ",
"                                ",
"                                ",
"                                ",
".....XXXoXXXXXO..               ",
".++++XOoXO@@@O#+++              ",
".++++XoXOo@@@O#+++$             ",
".++++oXOoX@@@O#+++$             ",
".++++%OoXO@@@O#+++$             ",
".++++XoXOO@@@O#+++$             ",
".++++oXOOOOOOO#+++$             ",
".++++#########@+++$$$$$$        ",
".+++++++++++++++++$&&&&&$       ",
".+$$$$$$$$$$$$$$$+$&&&&&&$      ",
".+$%%%%%%%%%%%%%$+$$&&&&&&$     ",
".+$%%%%%**%%%%%%$+$$$&&&&&&$    ",
".+$%%%%%**%%%%%%$+$$$&&&&&&&$$$ ",
".+$%%%%%**%%%%%%$$$$&&&&&&&&&$$ ",
".+$%%********%%$&&&&&&&&&&&&&$$ ",
".+$%%********%%$&&&&&&&&&&&&&$$ ",
".+$%%%%%**%%%%%$&&&&&&&&&&&&&$$ ",
".+$%%%%%**%%%%%%$$$$$$$$$$$&&$$ ",
".+$%%%%%**%%%%%%$+$        $$$$ ",
".+$%%%%%%%%%%%%%$+$          $$ ",
"+$$$$$$$$$$$$$$$$$$             ",
"                                ",
"                                ",
"                                ",
"                                "};
