/* XPM */
static char * pqueue_xpm[] = {
/* width height ncolors cpp [x_hot y_hot] */
"32 32 12 1 0 0",
/* colors */
" 	s background	m black	c #949494949494",
".	s iconColor5	m black	c blue",
"X	c #000000008080",
"o	c #2F2F4F4F4F4F",
"O	c #BEBEBEBEBEBE",
"+	s iconColor2	m white	c white",
"@	c #707080809090",
"#	s iconColor3	m black	c red",
"$	s iconColor1	m black	c black",
"%	c #FFFFFAFACDCD",
"&	c #A0A052522D2D",
"*	c #FFFFA5A50000",
/* pixels */
"       .   .   .   .   .        ",
"      ..X ..X ..X ..X ..X       ",
"     o...XX..XX..XX..XX..X      ",
"    oOO...XX..XX..XX..XX..X     ",
"   oOXOO...XX..XX..XX..XX..X    ",
"  oOOOXO..+.XXO.XXO.XXO.XXO.X   ",
" ..OOOO..+++.X@O.X@O.X@O.X@O.X  ",
"....OO..+++++.X@O.X@O.X@O.X@O.X ",
" X.....+##+++X@OOX@OOX@OOX@OOX  ",
"  X...++##++X@OOX@OOX@OOX@OOX   ",
"   X.++++++X@OOX@OOX@OOX@OOX    ",
"    X.++++X@OOX@OOX@OOX@OOX     ",
"     X.++XXOOXXOOXXOOXXOOX      ",
"      X.X $.X $.X $.X $.X       ",
"       X   X   X   X   X        ",
"$$$$$$$$$$$$$$$$$$$$$$$$$$$$$$$$",
" @%%%OOOOOOOO@@@@oooooooo$$$$$$ ",
"  $$$$$$$$$$$$$$$$$$$$$$$$$$$$  ",
"       &**&*&*&      &*&        ",
"        &*&*&*&      &*&        ",
"        &*&*&**&     &*&        ",
"         &&**&***& &&&*&        ",
"          &***&***&&*&&*&       ",
"           &&**&****&*&*&       ",
"            &&*******&**&       ",
"              &&******&*&       ",
"                &&******&       ",
"                  &****&        ",
"                  &****&        ",
"                 o$$$$$$$       ",
"                 o$$$$$$$       ",
"                 o$$$$$$$       "};
