/* XPM */
static char * prepare_xpm[] = {
/* width height ncolors cpp [x_hot y_hot] */
"32 32 12 1 0 0",
/* colors */
" 	s iconGray4	m white	c #949494949494",
".	s iconColor1	m black	c black",
"X	c #FFFFFAFACDCD",
"o	c #D2D2B4B48C8C",
"O	c #2F2F4F4F4F4F",
"+	c #707080809090",
"@	c #BEBEBEBEBEBE",
"#	c #DCDCDCDCDCDC",
"$	s iconColor2	m white	c white",
"%	c #A0A052522D2D",
"&	c #1E1E9090FFFF",
"*	c #8787CECEEBEB",
/* pixels */
"                                ",
"       ........                 ",
"       .XXXXXX..                ",
"       .XXXXXX.o.               ",
"       .XXXXXX.oo.              ",
"       .XXXXXX.ooo.             ",
"       .XXXXXX......            ",
"       .XXXXXXXoooo.            ",
"       .OXOXOXOXOXO.            ",
"     +@@#$$$$$#@@++OO.          ",
"    O++@@##$#@@+++OO...         ",
"    .++@@##$#@@+++OO...         ",
"     .OO++@@@++OO.....          ",
"      ++@@#$#@@++OO..           ",
"      ++@@#$#@@++OO..+          ",
"      ++@@#$#@@++OO..O....      ",
"      ++@@#$#@@++OO...   .      ",
"      ++@@#$#@@++OO..    .      ",
"     +@@#$$$$$#@@++OO.   . %%   ",
"    O++@@##$#@@++OOO...  ..%%   ",
"    .OOOOOOOOOOOOOOO...    ..   ",
"     .................          ",
"       .+.+..O.++++.            ",
"       .&&&&&&&&&&&.            ",
"       .***O*OO@++*.            ",
"       .***********.            ",
"       .***+*O+OO**.            ",
"       .***********.            ",
"       .*****O*OO+*.            ",
"       .***********.            ",
"       .............            ",
"                                "};
