/* XPM */
static char * private_xpm[] = {
/* width height ncolors cpp [x_hot y_hot] */
"16 16 5 1 0 0",
/* colors */
" 	s topShadowColor	m white	c #bdbdbdbdbdbd",
".	s iconGray6	m black	c #636363636363",
"X	s bottomShadowColor	m black	c #636363636363",
"o	s iconColor2	m white	c white",
"O	s iconColor3	m black	c red",
/* pixels */
"                ",
" ..............X",
" .....ooooo....X",
" ....oOOOOOo...X",
" ...oOOOOOOOo..X",
" ..oOOOOOOOOOo.X",
" .oOOOOOOOOOOOoX",
" .oOoooooooooOoX",
" .oOoooooooooOoX",
" .oOoooooooooOoX",
" .oOOOOOOOOOOOoX",
" ..oOOOOOOOOOo.X",
" ...oOOOOOOOo..X",
" ....oOOOOOo...X",
" .....ooooo....X",
" XXXXXXXXXXXXXXX"};
