/* XPM */
static char * reposit_xpm[] = {
/* width height ncolors cpp [x_hot y_hot] */
"19 19 5 1 0 0",
/* colors */
" 	s none	m none	c none",
".	s iconColor1	m black	c black",
"X	c #66668080AAAA",
"o	c #999980805555",
"O	s iconColor2	m white	c white",
/* pixels */
"                   ",
" ..XoXoXoXoXoXoX.. ",
" .XXXXXXXXXXXXXXX. ",
" ................. ",
" ..XXXXXXXXXXXXX.. ",
" ..XoXoXoXoXoXoX.. ",
" ..XXXX.OOOOXXXX.. ",
" ..XoXo.OOOOoXoX.. ",
" ..XXXXXXXXXXXXX.. ",
" ..XoXo.....oXoX.. ",
" ..XXXXXXXXXXXXX.. ",
" ..XoXoXo.oXoXoX.. ",
" ..XXXXXXXXXXXXX.. ",
" ................. ",
" .XXXXXXXXXXXXXXX. ",
" ..XoXoXoXoXoXoX.. ",
" ..XXXXXXXXXXXXX.. ",
" ..XoXo.....oXoX.. ",
"                   "};
