/* XPM */
static char * schema_open_xpm[] = {
"24 26 11 1",
" 	c #FFFFFFFF0000",
".	c #000000000000",
"X	c #FFFFDFDF0000",
"o	c #FFFFBFBF0000",
"O	c #FFFF00000000",
"+	c #FFFFFFFFFFFF",
"@	c #33339F9F5555",
"#	c #333380805555",
"$	c #00008080AAAA",
"%	c #66668080AAAA",
"&	c #999980805555",
"                        ",
"          .             ",
"         .XX.           ",
"        .oXoX           ",
"        XX.XX.          ",
"        Xo.O.o          ",
"       .XX.OOXX.        ",
"       .XoOOOoX.        ",
"       .XXOOO.XX.       ",
"       oX.OOO+.oX       ",
"       XX.OOO++.X.      ",
"      .o.+OOO+++Xo.     ",
"      .X.+OO.+++.XX     ",
"      .o.+OO.+.++oX.    ",
"     .XX++.O.@#@..XX    ",
"     .Xo++..@###.oXo    ",
"     XX...#@$...XXX..   ",
"     oX.##@OO.XoX.@#.   ",
"    .XX@#@.O.X..#..     ",
"  ...oX#..X.X.##.%&%    ",
"  .@XX.XXXX.$@.%%%      ",
"  &%XoXo..@..%&%        ",
"  %%XXX.#@.%%%          ",
"    &%&%.%&%            ",
"      %%%%              ",
"       %                "};
