/* XPM */
static char * small_xpm[] = {
"19 19 14 1",
" 	c #9999BFBFFFFF",
".	c #CCCCBFBFAAAA",
"X	c #000000000000",
"o	c #66668080AAAA",
"O	c #00000000FFFF",
"+	c #CCCCDFDFAAAA",
"@	c #CCCCDFDFFFFF",
"#	c #FFFFDFDFAAAA",
"$	c #FFFFFFFFFFFF",
"%	c #33338080FFFF",
"&	c #9999DFDFFFFF",
"*	c #6666BFBFFFFF",
"=	c #9999DFDFAAAA",
"-	c #999980805555",
" . . . . . . . . . ",
"...................",
" . . . . . . . . . ",
".............XXXXXX",
" . . . . . XXXXXXX ",
".......XXXXXXX.....",
" . . XXXXXXXoooooo ",
"....XXXXXXOOOOOOOO.",
" .XXXXO+@XXXXXXXXX ",
"...O#XXXXXXXXXXXXXX",
" . O@XXXXXXXXXXXXXX",
"..OXX.XXXXX$X%X$$@X",
" OX.XX@$X&*X*&X$$XX",
"..XXX.$$$*= &*$$$XX",
" X X $X$$$*&*$$$XX ",
"..XX$o-o-o-o-o-o-..",
" .X.X. . . . . . . ",
"...................",
" . . . . . . . . . "};
