/* XPM */
static char * see_closed_xpm[] = {
"19 19 15 1",
" 	c #000000005555",
".	c #9999BFBFFFFF",
"X	c #CCCCBFBFAAAA",
"o	c #000000000000",
"O	c #999980805555",
"+	c #66668080AAAA",
"@	c #FFFFFFFFFFFF",
"#	c #6666BFBFFFFF",
"$	c #9999DFDFFFFF",
"%	c #9999DFDFAAAA",
"&	c #CCCCDFDFFFFF",
"*	c #00000000FFFF",
"=	c #33338080FFFF",
"-	c #FFFFDFDFAAAA",
";	c #CCCCDFDFAAAA",
"                   ",
" .X.X.X.X.X.X.X.X.X",
" XXXXXXXXXXXXXXXXXX",
" .X.X.X.X.X.X.XoXoX",
" XXO+O+O+O+O+O+@ooX",
" .oo@@@#$#@@@o@.o.o",
" oo@@@#$.%#@@@XoooX",
" oo@@o$#o#$o@&ooXo*",
" o&@@o=o@oooooXoo*X",
" oooooooooooooo&*.X",
" oooooooooooooo-*XX",
" .ooooooooo&;*ooooX",
" X********ooooooXXX",
" .++++++ooooooo.X.X",
" XXXXXoooooooXXXXXX",
" .ooooooo.X.X.X.X.X",
" ooooooXXXXXXXXXXXX",
" .X.X.X.X.X.X.X.X.X",
" XXXXXXXXXXXXXXXXXX"};
