/* XPM */
static char * server_open_xpm[] = {
"24 26 26 1",
" 	c #FFFFFFFF0000",
".	c #000000000000",
"X	c #FFFF00000000",
"o	c #33338080FFFF",
"O	c #33339F9FFFFF",
"+	c #00008080FFFF",
"@	c #00009F9FFFFF",
"#	c #CCCCBFBFAAAA",
"$	c #9999BFBFFFFF",
"%	c #FFFFBFBF0000",
"&	c #FFFF9F9F0000",
"*	c #3333BFBF5555",
"=	c #3333DFDF0000",
"-	c #3333BFBF0000",
";	c #66668080AAAA",
":	c #333360605555",
"?	c #CCCC80805555",
">	c #FFFF80800000",
",	c #CCCC9F9F5555",
"<	c #999940405555",
"1	c #CCCC60600000",
"2	c #999960600000",
"3	c #999960605555",
"4	c #333340405555",
"5	c #CCCC80800000",
"6	c #999980805555",
"                        ",
"                        ",
"                        ",
"    .XX.    .oO.        ",
"   .XXXX.. .+O@O.       ",
"  .XXXXX#X.oO+OoO.      ",
"  .XXX$#$X.O+O$O+.      ",
"  ....XXX#.+OoO##..     ",
"    ..XX.%&..O@#.%$     ",
"  .*=*...&##&&&&&&#     ",
"  ..*=*.&.&&$..#$#&     ",
"  ....-*=.&+O..#..      ",
"   ...*=*.@#+O..        ",
"    .*##.+Oo##.;.       ",
"    .X....+O$.XXXXX.    ",
"  .XXXXXXX:?>XXXXXXX    ",
"  .XXXXXX#?,<..XXX$#.   ",
"  .XXXXXX#1<2..XXX##.   ",
"   .XXXXX.<232.XXX.     ",
"  .4..#..?5<1<5.#.6;    ",
"  .,<,.,?,?,?,.;;;      ",
"  6;.?5?5?5..;6;        ",
"  ;;;..??,.;;;          ",
"    6;6;.;6;            ",
"      ;;;;              ",
"       ;                "};
