/* XPM */
static char * server_xpm[] = {
/* width height ncolors cpp [x_hot y_hot] */
"24 26 21 1 0 0",
/* colors */
" 	s none	m none	c none",
".	s iconColor1	m black	c black",
"X	c #999920200000",
"o	c #CCCC40400000",
"O	c #999920205555",
"+	c #00008080FFFF",
"@	s iconColor2	m white	c white",
"#	c #CCCC20200000",
"$	c #FFFFDFDF0000",
"%	c #333380805555",
"&	c #33339F9F5555",
"*	c #33339F9FFFFF",
"=	c #CCCC80805555",
"-	c #FFFF80800000",
";	c #CCCC80800000",
":	c #CCCC9F9F5555",
"?	c #33338080FFFF",
">	s iconColor7	m white	c cyan",
",	c #999940405555",
"<	c #66668080AAAA",
"1	c #999980805555",
/* pixels */
"                        ",
"                        ",
"                        ",
"           ..X          ",
"           oO.  .       ",
"    .   .+.@@.#O.       ",
"  $$.   .  .+.          ",
"  ..      .%.   .       ",
"  ..$     .@@.$$.       ",
"  ..       .%.&%. .     ",
"          .*.o..@.%.    ",
"    .     .@.@..$.#.    ",
"  $$.     .$.@..O.      ",
"  ..$   ..#.@.#O.       ",
"  ..$  .+.$.%..&.*+     ",
"  ..$  .@@.=-=;=.=;.    ",
"  $$. .@..=:=:=:=:=:.   ",
"  *?.%.O.+.=;>>=#=;=.   ",
"    ...&.:===o,==..     ",
"  ..-%%.-=;=#,;=.<1<    ",
"  .:=:=:=:=:=:.<<<      ",
"  1<.=;=;=;..<1<        ",
"  <<<..==:.<<<          ",
"    1<1<.<1<            ",
"      <<<<              ",
"       <                "};
