/* XPM */
static char * b_green_xpm[] = {
/* width height ncolors chars_per_pixel */
"14 14 7 1",
/* colors */
" 	s None	c None",
".	c black",
"X	c pale green",
"o	c lime green",
"O	c white",
"+	c sea green",
"@	c dark slate grey",
/* pixels */
"              ",
"     ....     ",
"    .XXXo.    ",
"   .XOXoo+.   ",
"  .XXOXXoo+.  ",
"  .oXoXo+++.  ",
"  .XoXooo+@.  ",
"  .oooo+++@.  ",
"  .oo+o++@@.  ",
"   .++++@@.   ",
"    .+@@@.    ",
"     ....     ",
"              ",
"              "};
