/* XPM */
static char * toolkit_open_xpm[] = {
"24 26 22 1",
" 	c #FFFFFFFF0000",
".	c #000000000000",
"X	c #999960605555",
"o	c #999960600000",
"O	c #999940405555",
"+	c #CCCC60600000",
"@	c #CCCC80805555",
"#	c #CCCC9F9F5555",
"$	c #CCCC80800000",
"%	c #FFFF80800000",
"&	c #9999BFBFFFFF",
"*	c #9999DFDFAAAA",
"=	c #9999DFDFFFFF",
"-	c #6666BFBFFFFF",
";	c #33339F9F5555",
":	c #333340405555",
"?	c #333360605555",
">	c #333380805555",
",	c #333360600000",
"<	c #66668080AAAA",
"1	c #999980805555",
"2	c #00008080AAAA",
"                        ",
"                        ",
"       .XoOoXo.         ",
"     ..O..+O+.          ",
"     XX.@#X..           ",
"   .oO..$@              ",
"  OoX..@@#              ",
" .+O. .@%@              ",
" ..   .#@#              ",
"      .@$@              ",
"      .@@# .            ",
"      .@%@ &*.          ",
"      .#@# =.=-=.       ",
"      .@$@ &..*&=.      ",
"      .@@# =.;:?.=-.    ",
"      .@%@.&.:.&*.>.    ",
"      .#@#>=..-=.;>;.   ",
"      .@$@;&=.;>>>;>.   ",
"    .?.@@#>.>;>;>..     ",
"  ..,:.@..>>;>>>.<1<    ",
"  .;2?.;2;>;2;.<<<      ",
"  1<.>;>>>;..<1<        ",
"  <<<..;>;.<<<          ",
"    1<1<.<1<            ",
"      <<<<              ",
"       <                "};
