/* XPM */
static char * wbuild_xpm[] = {
/* width height ncolors cpp [x_hot y_hot] */
"32 32 5 1 0 0",
/* colors */
" 	s iconGray4	m white	c #949494949494",
".	s iconColor1	m black	c black",
"X	c #BEBEBEBEBEBE",
"o	s iconColor5	m black	c blue",
"O	c #A0A052522D2D",
/* pixels */
"                                ",
"                                ",
"                                ",
"        ...   ...   .......     ",
"        .X.   .XX...XXXXXXX.    ",
"        .X.   .XXXXXXXoooXXX.   ",
"       .XXX.  .XXXXXXoooXXXXX.  ",
"       .XXX.  .XX...XXXXX..XXX. ",
"        .X.   ...   .....  .XX. ",
"        .X.          .X.    .X. ",
"        .X.          .X.     .. ",
"        .X.          .X.        ",
"        .X.          .X.        ",
"        .X.          .X.        ",
"        .X.          .X.        ",
"        .X.          .X.        ",
"        ...          ...        ",
"       .OOO.        .OOO.       ",
"      .OOOOO.      .OOOOO.      ",
"      .O.O.O.      .O.O.O.      ",
"      .O.O.O.      .O.O.O.      ",
"      .O.O.O.      .O.O.O.      ",
"      .O.O.O.      .O.O.O.      ",
"      .O.O.O.      .O.O.O.      ",
"      .O.O.O.      .O.O.O.      ",
"      .O.O.O.      .O.O.O.      ",
"      .O.O.O.      .O.O.O.      ",
"      .O.O.O.      .O.O.O.      ",
"      .O.O.O.      .O.O.O.      ",
"      .OOOOO.      .OOOOO.      ",
"       .OOO.        .OOO.       ",
"        ...          ...        "};
