/* XPM */
static char * workshop_xpm[] = {
/* width height ncolors cpp [x_hot y_hot] */
"32 27 11 1 0 0",
/* colors */
" 	s none	m none	c none",
".	s iconColor1	m black	c black",
"X	s iconColor5	m black	c blue",
"o	s iconColor7	m white	c cyan",
"O	c #66666060AAAA",
"+	c #666680805555",
"@	c #66668080AAAA",
"#	c #999980805555",
"$	s iconColor3	m black	c red",
"%	c #666660605555",
"&	s iconColor6	m white	c yellow",
/* pixels */
"                                ",
"                                ",
"                                ",
"                              . ",
"                   XXXXXXXXXX.. ",
"                   XXXXXXXXXX.. ",
"                   XXXXXXXXXX.. ",
"                   XXXXXXXXXX.. ",
"                   XXXXXXXXXX.. ",
"           ...     XX.oooo.XX.. ",
"             ..    XX.oooo.XX.. ",
"....      ..  .    XX.oooo.XX.. ",
"O+@.      .  ..    XX.oooo.XX.. ",
"#O#.               XX.oooo.XX.. ",
"@+O.        $.     XX......XX.. ",
"#%#.       .$$     XXXXXXXXXX.. ",
"           $$$.    X&XXXXXXXX.. ",
"#O#...  $$$$$.     X&&.XXXXXX.. ",
"....... ....$.     X&XXXXXXXX.. ",
"#%        ....     XXXXXXXXXX.. ",
"O+   .&&&&&&&..    XXXXXXXXXX.. ",
"#O   &&........    XXXXXXXXXX.. ",
"@+   &&    .       XXXXXXXXXX.. ",
"#%   ..    .       XXXXXXXXXX.. ",
"O+   ..    .       XXXXXXXXXX.. ",
"#O         ..      XXXXXXXXXX.. ",
"................................"};
