/* XPM */
static char * work_xpm[] = {
/* width height ncolors cpp [x_hot y_hot] */
"32 32 16 1 0 0",
/* colors */
" 	s iconGray4	m white	c #949494949494",
".	s iconColor1	m black	c black",
"X	c #FFFF63634747",
"o	c #707080809090",
"O	c #2F2F4F4F4F4F",
"+	c #EEEE8282EEEE",
"@	c #BEBEBEBEBEBE",
"#	c #DCDCDCDCDCDC",
"$	s iconColor2	m white	c white",
"%	c #A0A052522D2D",
"&	c #E6E6E6E6FAFA",
"*	c #FFFFA5A50000",
"=	s iconColor6	m white	c yellow",
"-	c #B2B222222222",
";	c #CDCD85853F3F",
":	c #D2D2B4B48C8C",
/* pixels */
"                                ",
"                   ......       ",
"                 ..XXXXXX.      ",
"                ..ooOX++XX.     ",
"               .@@##$oOXXXX.    ",
"              .@@#$$@@oOXXX%.   ",
"             .@&&&@@@@@@OX%%.   ",
"            ..***@&@@@@oOX%%.   ",
"           .====*--&@@ooo.%%.   ",
"          .====*$**-&@ooO.%-.   ",
"         .====*$****-@oO..--.   ",
"        .====*$******-O...-..O  ",
"       .====*$*******O..O.-..OOO",
"      .====*$*******%O.Oo....OOO",
"     .;****$*******%%O.oO....OOO",
"    .;:::**;;*****%%%O.O....OOOO",
"    .::&&::;;****%%%;O.....OOOO ",
"    .:&&&:::;;**%%%;O.....OOOO  ",
"   .;:&&&::::;*%%%;;O....OOOO   ",
"   .::&&:::::;-%%;;-....OOOO    ",
"   .:&&:::::::-%;;-....OOOO     ",
"  .;:::::::::;-;;-....OOOO      ",
"  ...:::::::;;-;-....OOOO       ",
"  .@o..::::;;%--....OOOO        ",
" .O$...::;;;%--....OOOO         ",
" .oO....;;;%.......OOO          ",
" .O.....-.......OOOOO           ",
" ............OOOOOOO            ",
" .........OOOOOOOOO             ",
"      OOOOOOOOOOOO              ",
"      OOOOOOOOO                 ",
"      OOOOO                     "};
