/* XPM */
static char * workshop_open_xpm[] = {
"32 27 11 1",
" 	c #FFFFFFFF0000",
".	c #FFFFFFFFFFFF",
"X	c #000000000000",
"o	c #00000000FFFF",
"O	c #0000FFFFFFFF",
"+	c #66666060AAAA",
"@	c #666680805555",
"#	c #66668080AAAA",
"$	c #999980805555",
"%	c #FFFF00000000",
"&	c #666660605555",
"                                ",
"                                ",
"                                ",
"                  ............X ",
"                  .ooooooooooXX ",
"                  .ooooooooooXX ",
"                  .ooooooooooXX ",
"                  .ooooooooooXX ",
"                  .ooooooooooXX ",
"           XXX    .ooXOOOOXooXX ",
"           ..XX   .ooXOOOOXooXX ",
"XXXX      XX..X   .ooXOOOOXooXX ",
"+@#X      X..XX   .ooXOOOOXooXX ",
"$+$X        .     .ooXOOOOXooXX ",
"#@+X        %X    .ooXXXXXXooXX ",
"$&$X       X%%    .ooooooooooXX ",
"           %%%X   .o ooooooooXX ",
"$+$XXX..%%%%%X.   .o  XooooooXX ",
"XXXXXXX XXXX%X.   .o ooooooooXX ",
"$&        XXXX.   .ooooooooooXX ",
"+@   X       XX   .ooooooooooXX ",
"$+     XXXXXXXX   .ooooooooooXX ",
"#@         X      .ooooooooooXX ",
"$&   XX    X      .ooooooooooXX ",
"+@   XX    X      .ooooooooooXX ",
"$+ ....    XX     .ooooooooooXX ",
"XXXXXXXXXXXXXXXXXXXXXXXXXXXXXXXX"};
