# Blender3D v249 OBJ File: deposito.blend
# www.blender3d.org
mtllib deposito.mtl
o Cylinder
v 0.707107 0.707107 2.079426
v 0.831470 0.555570 2.079426
v 0.923880 0.382683 2.079426
v 0.980785 0.195090 2.079426
v 1.000000 0.000000 2.079426
v 0.980785 -0.195090 2.079426
v 0.923880 -0.382683 2.079426
v 0.831470 -0.555570 2.079426
v 0.707107 -0.707107 2.079426
v 0.555570 -0.831470 2.079426
v 0.382683 -0.923880 2.079426
v 0.195090 -0.980785 2.079426
v -0.000000 -1.000000 2.079426
v -0.195091 -0.980785 2.079426
v -0.382684 -0.923879 2.079426
v -0.555571 -0.831469 2.079426
v -0.707107 -0.707106 2.079426
v -0.831470 -0.555570 2.079426
v -0.923880 -0.382683 2.079426
v -0.980785 -0.195089 2.079426
v -1.000000 0.000001 2.079426
v -0.980785 0.195091 2.079426
v -0.923879 0.382684 2.079426
v -0.831469 0.555571 2.079426
v -0.707106 0.707108 2.079426
v -0.555569 0.831470 2.079426
v -0.382682 0.923880 2.079426
v -0.195089 0.980786 2.079426
v 0.000002 1.000000 2.079426
v 0.195092 0.980785 2.079426
v 0.382685 0.923879 2.079426
v 0.555572 0.831469 2.079426
v 0.707108 0.707105 4.079426
v 0.831471 0.555569 4.079426
v 0.923880 0.382682 4.079426
v 0.980786 0.195088 4.079426
v 1.000000 -0.000002 4.079426
v 0.980785 -0.195092 4.079426
v 0.923879 -0.382685 4.079426
v 0.831469 -0.555571 4.079426
v 0.707106 -0.707107 4.079426
v 0.555570 -0.831470 4.079426
v 0.382684 -0.923880 4.079426
v 0.195091 -0.980785 4.079426
v 0.000001 -1.000000 4.079426
v -0.195089 -0.980786 4.079426
v -0.382682 -0.923880 4.079426
v -0.555568 -0.831471 4.079426
v -0.707105 -0.707109 4.079426
v -0.831468 -0.555573 4.079426
v -0.923878 -0.382686 4.079426
v -0.980785 -0.195094 4.079426
v -1.000000 -0.000004 4.079426
v -0.980786 0.195086 4.079426
v -0.923881 0.382679 4.079426
v -0.831473 0.555566 4.079426
v -0.707111 0.707103 4.079426
v -0.555575 0.831466 4.079426
v -0.382689 0.923877 4.079426
v -0.195097 0.980784 4.079426
v -0.000007 1.000000 4.079426
v 0.195083 0.980787 4.079426
v 0.382676 0.923883 4.079426
v 0.555563 0.831474 4.079426
v 0.000000 0.000000 2.079426
v 0.000000 0.000000 4.429203
vn -0.000000 0.000000 -1.000000
vn 0.256319 0.210355 0.943425
vn 0.292432 0.156307 0.943425
vn 0.317307 0.096253 0.943425
vn 0.329988 0.032500 0.943425
vn 0.329988 -0.032502 0.943425
vn 0.317307 -0.096255 0.943425
vn 0.292432 -0.156308 0.943425
vn 0.256318 -0.210355 0.943425
vn 0.210355 -0.256319 0.943425
vn 0.156308 -0.292432 0.943425
vn 0.096254 -0.317307 0.943425
vn 0.032501 -0.329988 0.943425
vn -0.032501 -0.329988 0.943425
vn -0.096254 -0.317307 0.943425
vn -0.156308 -0.292432 0.943425
vn -0.210355 -0.256319 0.943425
vn -0.256318 -0.210356 0.943425
vn -0.292431 -0.156309 0.943425
vn -0.317307 -0.096255 0.943425
vn -0.329988 -0.032502 0.943425
vn -0.329988 0.032500 0.943425
vn -0.317307 0.096253 0.943425
vn -0.292433 0.156307 0.943425
vn -0.256320 0.210354 0.943425
vn -0.210357 0.256317 0.943425
vn -0.156310 0.292431 0.943425
vn -0.096256 0.317306 0.943425
vn -0.032503 0.329988 0.943425
vn 0.032498 0.329988 0.943425
vn 0.096252 0.317308 0.943425
vn 0.156306 0.292433 0.943425
vn 0.210355 0.256319 0.943425
vn 0.773011 0.634393 0.000000
vn 0.881922 0.471396 -0.000000
vn 0.956941 0.290284 -0.000000
vn 0.995185 0.098016 -0.000000
vn 0.995185 -0.098018 -0.000000
vn 0.956940 -0.290285 -0.000000
vn 0.881921 -0.471397 -0.000000
vn 0.773010 -0.634394 -0.000000
vn 0.634393 -0.773011 -0.000000
vn 0.471397 -0.881921 -0.000000
vn 0.290285 -0.956940 -0.000000
vn 0.098017 -0.995185 -0.000000
vn -0.098017 -0.995185 -0.000000
vn -0.290284 -0.956941 -0.000000
vn -0.471396 -0.881922 -0.000000
vn -0.634393 -0.773011 0.000000
vn -0.773010 -0.634394 0.000000
vn -0.881921 -0.471398 0.000000
vn -0.956940 -0.290286 -0.000000
vn -0.995185 -0.098019 -0.000000
vn -0.995185 0.098016 -0.000000
vn -0.956941 0.290283 -0.000000
vn -0.881922 0.471395 -0.000000
vn -0.773012 0.634392 -0.000000
vn -0.634395 0.773009 -0.000000
vn -0.471399 0.881920 -0.000000
vn -0.290287 0.956940 -0.000000
vn -0.098020 0.995184 -0.000000
vn 0.098014 0.995185 -0.000000
vn 0.290282 0.956941 -0.000000
vn 0.471394 0.881923 -0.000000
vn 0.634392 0.773011 0.000000
usemtl Material
s off
f 65//1 1//1 2//1
f 66//2 34//2 33//2
f 65//1 2//1 3//1
f 66//3 35//3 34//3
f 65//1 3//1 4//1
f 66//4 36//4 35//4
f 65//1 4//1 5//1
f 66//5 37//5 36//5
f 65//1 5//1 6//1
f 66//6 38//6 37//6
f 65//1 6//1 7//1
f 66//7 39//7 38//7
f 65//1 7//1 8//1
f 66//8 40//8 39//8
f 65//1 8//1 9//1
f 66//9 41//9 40//9
f 65//1 9//1 10//1
f 66//10 42//10 41//10
f 65//1 10//1 11//1
f 66//11 43//11 42//11
f 65//1 11//1 12//1
f 66//12 44//12 43//12
f 65//1 12//1 13//1
f 66//13 45//13 44//13
f 65//1 13//1 14//1
f 66//14 46//14 45//14
f 65//1 14//1 15//1
f 66//15 47//15 46//15
f 65//1 15//1 16//1
f 66//16 48//16 47//16
f 65//1 16//1 17//1
f 66//17 49//17 48//17
f 65//1 17//1 18//1
f 66//18 50//18 49//18
f 65//1 18//1 19//1
f 66//19 51//19 50//19
f 65//1 19//1 20//1
f 66//20 52//20 51//20
f 65//1 20//1 21//1
f 66//21 53//21 52//21
f 65//1 21//1 22//1
f 66//22 54//22 53//22
f 65//1 22//1 23//1
f 66//23 55//23 54//23
f 65//1 23//1 24//1
f 66//24 56//24 55//24
f 65//1 24//1 25//1
f 66//25 57//25 56//25
f 65//1 25//1 26//1
f 66//26 58//26 57//26
f 65//1 26//1 27//1
f 66//27 59//27 58//27
f 65//1 27//1 28//1
f 66//28 60//28 59//28
f 65//1 28//1 29//1
f 66//29 61//29 60//29
f 65//1 29//1 30//1
f 66//30 62//30 61//30
f 65//1 30//1 31//1
f 66//31 63//31 62//31
f 65//1 31//1 32//1
f 66//32 64//32 63//32
f 32//1 1//1 65//1
f 66//33 33//33 64//33
f 1//34 33//34 34//34 2//34
f 2//35 34//35 35//35 3//35
f 3//36 35//36 36//36 4//36
f 4//37 36//37 37//37 5//37
f 5//38 37//38 38//38 6//38
f 6//39 38//39 39//39 7//39
f 7//40 39//40 40//40 8//40
f 8//41 40//41 41//41 9//41
f 9//42 41//42 42//42 10//42
f 10//43 42//43 43//43 11//43
f 11//44 43//44 44//44 12//44
f 12//45 44//45 45//45 13//45
f 13//46 45//46 46//46 14//46
f 14//47 46//47 47//47 15//47
f 15//48 47//48 48//48 16//48
f 16//49 48//49 49//49 17//49
f 17//50 49//50 50//50 18//50
f 18//51 50//51 51//51 19//51
f 19//52 51//52 52//52 20//52
f 20//53 52//53 53//53 21//53
f 21//54 53//54 54//54 22//54
f 22//55 54//55 55//55 23//55
f 23//56 55//56 56//56 24//56
f 24//57 56//57 57//57 25//57
f 25//58 57//58 58//58 26//58
f 26//59 58//59 59//59 27//59
f 27//60 59//60 60//60 28//60
f 28//61 60//61 61//61 29//61
f 29//62 61//62 62//62 30//62
f 30//63 62//63 63//63 31//63
f 31//64 63//64 64//64 32//64
f 33//65 1//65 32//65 64//65
o Cube.004
v -0.994683 1.003061 -0.004558
v -0.994683 0.843061 -0.004558
v -0.994684 0.843061 1.995442
v -0.994684 1.003061 1.995442
v -0.834683 1.003061 -0.004559
v -0.834683 0.843061 -0.004557
v -0.834683 0.843061 1.995442
v -0.834683 1.003061 1.995442
vn -1.000000 -0.000000 -0.000000
vn 1.000000 0.000000 0.000000
vn 0.000001 -0.000004 -1.000000
vn -0.000000 -1.000000 0.000000
vn -0.000002 0.000003 1.000000
vn 0.000000 1.000000 -0.000000
usemtl Material
s off
f 67//66 68//66 69//66 70//66
f 71//67 74//67 73//67 72//67
f 67//68 71//68 72//68 68//68
f 68//69 72//69 73//69 69//69
f 69//70 73//70 74//70 70//70
f 71//71 67//71 70//71 74//71
o Cube.003
v 0.838824 1.003061 -0.004558
v 0.838824 0.843061 -0.004558
v 0.838823 0.843061 1.995442
v 0.838823 1.003061 1.995442
v 0.998824 1.003061 -0.004559
v 0.998824 0.843061 -0.004557
v 0.998823 0.843061 1.995442
v 0.998823 1.003061 1.995442
usemtl Material
s off
f 75//66 76//66 77//66 78//66
f 79//67 82//67 81//67 80//67
f 75//68 79//68 80//68 76//68
f 76//69 80//69 81//69 77//69
f 77//70 81//70 82//70 78//70
f 79//71 75//71 78//71 82//71
o Cube.002
v 0.838824 -0.830446 -0.004558
v 0.838824 -0.990446 -0.004558
v 0.838823 -0.990446 1.995442
v 0.838823 -0.830446 1.995442
v 0.998824 -0.830446 -0.004559
v 0.998824 -0.990446 -0.004557
v 0.998823 -0.990446 1.995442
v 0.998823 -0.830446 1.995442
usemtl Material
s off
f 83//66 84//66 85//66 86//66
f 87//67 90//67 89//67 88//67
f 83//68 87//68 88//68 84//68
f 84//69 88//69 89//69 85//69
f 85//70 89//70 90//70 86//70
f 87//71 83//71 86//71 90//71
o Cube.001
v -0.994683 -0.830446 -0.004558
v -0.994683 -0.990446 -0.004558
v -0.994684 -0.990446 1.995442
v -0.994684 -0.830446 1.995442
v -0.834683 -0.830446 -0.004559
v -0.834683 -0.990446 -0.004557
v -0.834683 -0.990446 1.995442
v -0.834683 -0.830446 1.995442
usemtl Material
s off
f 91//66 92//66 93//66 94//66
f 95//67 98//67 97//67 96//67
f 91//68 95//68 96//68 92//68
f 92//69 96//69 97//69 93//69
f 93//70 97//70 98//70 94//70
f 95//71 91//71 94//71 98//71
o Cube
v 1.000000 1.000000 1.918794
v 1.000000 -1.000000 1.918794
v -1.000000 -1.000000 1.918794
v -1.000000 1.000000 1.918794
v 1.000000 0.999999 2.084983
v 0.999999 -1.000001 2.084983
v -1.000000 -1.000000 2.084983
v -1.000000 1.000000 2.084983
vn 0.000000 -0.000000 1.000000
vn 1.000000 -0.000000 0.000001
vn -0.000000 -1.000000 -0.000001
vn -1.000000 0.000000 -0.000002
vn 0.000000 1.000000 0.000003
usemtl Material
s off
f 99//1 100//1 101//1 102//1
f 103//72 106//72 105//72 104//72
f 99//73 103//73 104//73 100//73
f 100//74 104//74 105//74 101//74
f 101//75 105//75 106//75 102//75
f 103//76 99//76 102//76 106//76
